<svg width="212" height="218" viewBox="0 0 212 218" fill="none" xmlns="http://www.w3.org/2000/svg">
<path d="M56.9623 16.3634C49.0285 22.897 49.7047 22.9789 48.5348 36.6271C46.0779 65.2917 45.2639 108.209 45.2207 134.726C45.1901 153.477 44.9453 172.261 46.1676 190.972C46.6861 198.911 45.0912 208.556 50.4286 214.455C53.3967 217.736 55.799 207.171 56.9623 202.903C62.2084 183.655 67.0383 140.703 68.1357 122.227C69.4573 99.9757 69.5476 64.1638 65.8631 41.3616C65.559 39.4799 58.8029 4.92774 48.4401 3.29614C43.4052 2.5034 38.7129 8.26392 36.5092 12.8598C24.0137 38.9187 22.3659 83.7026 21.8321 109.16C21.7692 112.161 23.0306 250.853 53.1746 176.863C62.0342 155.117 66.2169 131.692 68.1356 108.402C68.5618 103.229 68.7997 90.7573 68.8931 84.7297C68.9039 84.0354 68.8931 86.1185 68.8931 86.8129C68.8931 106.696 68.7202 126.588 69.1772 146.468C69.5319 161.895 65.7709 198.147 77.6993 211.33C86.5121 221.071 100.351 165.621 101.845 160.292C104.41 151.144 106.74 184.696 111.504 180.462C117.975 174.71 115.268 148.474 120.215 167.205C123.979 181.454 128.547 174.132 131.199 164.08C133.677 154.69 138.355 176.708 142.846 180.367C147.539 184.191 152.146 164.289 143.509 161.05C142.865 160.809 137.22 160.458 138.017 162.849C141.293 172.679 158.434 156.925 166.519 150.445C173.613 144.758 193.48 127.297 175.893 118.439C151.536 106.172 104.229 115.467 88.3993 138.324C76.0319 156.183 86.4897 176.932 97.7737 191.351C102.264 197.089 113.926 201.819 111.22 208.584C107.693 217.401 92.7756 213.834 83.286 214.171C59.7428 215.009 32.2194 216.12 9.04895 210.668C-3.07813 207.814 6.25982 203.112 12.4578 200.252C26.16 193.928 57.0334 184.586 70.2188 181.124C115.21 169.312 162.433 162.966 208.656 157.831" stroke="white" stroke-width="5" stroke-linecap="round"/>
</svg>
