<svg width="124" height="25" viewBox="0 0 124 25" fill="none" xmlns="http://www.w3.org/2000/svg">
<path d="M5.112 20.088C4.2 20.088 3.4 19.84 2.712 19.344C2.024 18.864 1.48 18.176 1.08 17.28C0.696 16.384 0.504 15.336 0.504 14.136C0.504 12.904 0.696 11.656 1.08 10.392C1.48 9.128 2.016 7.92 2.688 6.768C3.36 5.616 4.12 4.592 4.968 3.696C5.816 2.784 6.712 2.064 7.656 1.536C8.6 1.008 9.528 0.743999 10.44 0.743999C10.744 0.743999 11.016 0.767999 11.256 0.816C11.496 0.863999 11.704 0.935999 11.88 1.032C11.752 1.032 11.672 1.032 11.64 1.032C11.624 1.032 11.608 1.032 11.592 1.032C10.76 1.032 9.92 1.312 9.072 1.872C8.224 2.416 7.416 3.16 6.648 4.104C5.88 5.032 5.192 6.08 4.584 7.248C3.976 8.4 3.496 9.6 3.144 10.848C2.792 12.096 2.616 13.304 2.616 14.472C2.616 15.32 2.72 16.112 2.928 16.848C3.152 17.584 3.504 18.168 3.984 18.6C4.464 19.048 5.08 19.272 5.832 19.272C6.728 19.272 7.568 18.992 8.352 18.432C9.136 17.888 9.84 17.144 10.464 16.2C11.104 15.256 11.648 14.208 12.096 13.056C12.56 11.888 12.912 10.688 13.152 9.456C13.408 8.208 13.536 7.016 13.536 5.88C13.536 5.432 13.504 4.952 13.44 4.44C13.376 3.928 13.264 3.488 13.104 3.12C12.944 2.752 12.728 2.568 12.456 2.568C12.168 2.568 11.856 2.752 11.52 3.12C11.184 3.472 10.856 3.92 10.536 4.464C10.232 5.008 9.96 5.576 9.72 6.168C9.48 6.744 9.312 7.256 9.216 7.704C8.816 7.608 8.52 7.456 8.328 7.248C8.152 7.024 8.064 6.784 8.064 6.528C8.064 6.096 8.208 5.624 8.496 5.112C8.8 4.584 9.176 4.08 9.624 3.6C10.088 3.104 10.568 2.704 11.064 2.4C11.56 2.08 12.008 1.92 12.408 1.92C12.824 1.92 13.16 2.072 13.416 2.376C13.688 2.68 13.896 3.072 14.04 3.552C14.2 4.016 14.304 4.52 14.352 5.064C14.416 5.592 14.448 6.088 14.448 6.552C14.448 8.296 14.248 9.888 13.848 11.328C13.464 12.752 12.936 14.008 12.264 15.096C11.608 16.184 10.872 17.104 10.056 17.856C9.24 18.592 8.4 19.144 7.536 19.512C6.688 19.896 5.88 20.088 5.112 20.088ZM22.0811 18.912C21.6331 18.912 21.2491 18.76 20.9291 18.456C20.6091 18.152 20.3531 17.768 20.1611 17.304C19.9851 16.84 19.8491 16.368 19.7531 15.888C19.6731 15.392 19.6331 14.96 19.6331 14.592C19.8091 14.592 20.0651 14.552 20.4011 14.472C20.7371 14.376 21.0811 14.24 21.4331 14.064C21.7851 13.872 22.0811 13.632 22.3211 13.344C22.5771 13.04 22.7051 12.688 22.7051 12.288C22.7051 11.952 22.5851 11.688 22.3451 11.496C22.1051 11.304 21.8251 11.208 21.5051 11.208C21.0091 11.208 20.5451 11.384 20.1131 11.736C19.6811 12.072 19.2891 12.52 18.9371 13.08C18.6011 13.624 18.2971 14.208 18.0251 14.832C17.7531 15.456 17.5211 16.048 17.3291 16.608C17.1371 17.168 16.9771 17.632 16.8491 18C16.7531 18.288 16.6171 18.48 16.4411 18.576C16.2651 18.688 16.0811 18.744 15.8891 18.744C15.6171 18.744 15.4171 18.632 15.2891 18.408C15.1771 18.184 15.1051 17.904 15.0731 17.568C15.0571 17.216 15.0491 16.856 15.0491 16.488C15.0491 15.656 15.1851 14.696 15.4571 13.608C15.7291 12.52 16.0891 11.392 16.5371 10.224C17.0011 9.04 17.5051 7.896 18.0491 6.792C18.5931 5.688 19.1371 4.688 19.6811 3.792C20.2251 2.896 20.7291 2.184 21.1931 1.656C21.6571 1.128 22.0331 0.863999 22.3211 0.863999C22.5451 0.863999 22.7211 1.016 22.8491 1.32C22.9931 1.624 23.0651 1.992 23.0651 2.424C23.0651 2.968 22.9451 3.584 22.7051 4.272C22.4651 4.944 22.1211 5.624 21.6731 6.312C21.2411 7 20.7211 7.648 20.1131 8.256C19.5211 8.864 18.8731 9.384 18.1691 9.816C17.6411 11.112 17.2411 12.376 16.9691 13.608C16.7131 14.824 16.5851 15.848 16.5851 16.68C16.8411 16.04 17.1451 15.336 17.4971 14.568C17.8651 13.8 18.2811 13.064 18.7451 12.36C19.2091 11.656 19.7131 11.08 20.2571 10.632C20.8011 10.184 21.3691 9.96 21.9611 9.96C22.5531 9.96 23.0571 10.168 23.4731 10.584C23.8891 11 24.0971 11.504 24.0971 12.096C24.0971 12.608 23.9611 13.048 23.6891 13.416C23.4331 13.768 23.1131 14.056 22.7291 14.28C22.3611 14.488 21.9851 14.648 21.6011 14.76C21.2331 14.856 20.9291 14.904 20.6891 14.904C20.7051 15.032 20.7531 15.264 20.8331 15.6C20.9131 15.936 21.0251 16.288 21.1691 16.656C21.3291 17.024 21.5211 17.344 21.7451 17.616C21.9691 17.872 22.2411 18 22.5611 18C23.0251 18 23.4651 17.824 23.8811 17.472C24.2971 17.12 24.6891 16.656 25.0571 16.08C25.4411 15.488 25.7931 14.824 26.1131 14.088L26.3531 14.328C26.1291 15.112 25.7851 15.856 25.3211 16.56C24.8571 17.248 24.3371 17.808 23.7611 18.24C23.2011 18.688 22.6411 18.912 22.0811 18.912ZM18.5771 8.856C19.3131 8.264 19.9531 7.592 20.4971 6.84C21.0571 6.088 21.4891 5.368 21.7931 4.68C22.0971 3.976 22.2491 3.424 22.2491 3.024C22.2491 2.944 22.2411 2.888 22.2251 2.856C22.2251 2.824 22.2091 2.808 22.1771 2.808C22.0171 2.808 21.7371 3.088 21.3371 3.648C20.9531 4.208 20.5131 4.952 20.0171 5.88C19.5211 6.792 19.0411 7.784 18.5771 8.856ZM27.3201 18.768C26.6321 18.768 26.1441 18.552 25.8561 18.12C25.5681 17.704 25.4241 17.192 25.4241 16.584C25.4241 16.088 25.5041 15.576 25.6641 15.048C25.8241 14.52 26.0321 14.024 26.2881 13.56C26.5601 13.096 26.8561 12.72 27.1761 12.432C27.5121 12.144 27.8481 12 28.1841 12C28.2641 12 28.3441 12.016 28.4241 12.048C28.5201 12.064 28.6081 12.088 28.6881 12.12C28.5441 12.248 28.3681 12.488 28.1601 12.84C27.9681 13.176 27.7841 13.568 27.6081 14.016C27.4321 14.448 27.2801 14.88 27.1521 15.312C27.0401 15.744 26.9841 16.112 26.9841 16.416C26.9841 16.896 27.0641 17.248 27.2241 17.472C27.3841 17.68 27.5921 17.784 27.8481 17.784C28.1841 17.784 28.5841 17.608 29.0481 17.256C29.5121 16.888 29.9681 16.424 30.4161 15.864C29.9681 15.496 29.6161 15.016 29.3601 14.424C29.1201 13.816 29.0001 13.2 29.0001 12.576C29.0001 12.048 29.0881 11.552 29.2641 11.088C29.4561 10.624 29.7281 10.256 30.0801 9.984C30.4321 9.696 30.8561 9.552 31.3521 9.552C32.0081 9.552 32.4481 9.728 32.6721 10.08C32.8961 10.432 33.0081 10.872 33.0081 11.4C33.0081 12.024 32.8561 12.72 32.5521 13.488C32.2481 14.24 31.8641 14.968 31.4001 15.672C31.6881 15.832 31.9921 15.912 32.3121 15.912C32.5681 15.912 32.8561 15.864 33.1761 15.768C33.4961 15.656 33.8081 15.472 34.1121 15.216C34.4321 14.96 34.6881 14.616 34.8801 14.184L35.1681 14.424C34.8481 15.176 34.3921 15.712 33.8001 16.032C33.2241 16.336 32.6721 16.488 32.1441 16.488C31.9361 16.488 31.7361 16.472 31.5441 16.44C31.3521 16.392 31.1681 16.328 30.9921 16.248C30.4481 16.968 29.8481 17.568 29.1921 18.048C28.5521 18.528 27.9281 18.768 27.3201 18.768ZM30.8481 15.24C31.2481 14.648 31.5761 14.032 31.8321 13.392C32.1041 12.736 32.2401 12.12 32.2401 11.544C32.2401 11.08 32.1681 10.744 32.0241 10.536C31.8961 10.312 31.7281 10.2 31.5201 10.2C31.2001 10.2 30.8721 10.432 30.5361 10.896C30.2001 11.36 30.0321 11.944 30.0321 12.648C30.0321 13.112 30.0961 13.584 30.2241 14.064C30.3681 14.528 30.5761 14.92 30.8481 15.24ZM35.4617 24.72C35.0617 24.72 34.7097 24.608 34.4057 24.384C34.1017 24.176 33.9497 23.864 33.9497 23.448C33.9497 22.936 34.0777 22.48 34.3337 22.08C34.5897 21.68 34.9337 21.312 35.3657 20.976C35.7977 20.64 36.2937 20.32 36.8537 20.016C37.4137 19.712 37.9977 19.408 38.6057 19.104C38.8297 18.512 39.0537 17.856 39.2777 17.136C39.5177 16.4 39.7417 15.592 39.9497 14.712C39.4377 15.544 38.8857 16.264 38.2937 16.872C37.7177 17.464 37.1017 17.76 36.4457 17.76C36.1417 17.76 35.8377 17.696 35.5337 17.568C35.2457 17.424 35.0057 17.208 34.8137 16.92C34.6217 16.632 34.5257 16.264 34.5257 15.816C34.5257 15.368 34.5977 14.848 34.7417 14.256C34.9017 13.664 35.0937 13.088 35.3177 12.528C35.5417 11.968 35.7737 11.504 36.0137 11.136C36.2537 10.768 36.4617 10.584 36.6377 10.584C36.7017 10.584 36.8137 10.608 36.9737 10.656C37.1497 10.704 37.3097 10.776 37.4537 10.872C37.6137 10.952 37.6937 11.04 37.6937 11.136C37.5497 11.344 37.3897 11.64 37.2137 12.024C37.0377 12.408 36.8617 12.84 36.6857 13.32C36.5257 13.784 36.3897 14.24 36.2777 14.688C36.1657 15.136 36.1097 15.52 36.1097 15.84C36.1097 16.128 36.1737 16.36 36.3017 16.536C36.4297 16.712 36.6537 16.8 36.9737 16.8C37.2777 16.8 37.6137 16.656 37.9817 16.368C38.3657 16.064 38.7417 15.68 39.1097 15.216C39.4937 14.752 39.8457 14.256 40.1657 13.728C40.2137 13.552 40.2537 13.376 40.2857 13.2C40.3337 13.008 40.3737 12.816 40.4057 12.624C40.4537 12.4 40.5657 12.144 40.7417 11.856C40.9337 11.552 41.2297 11.4 41.6297 11.4C41.7097 11.4 41.7897 11.408 41.8697 11.424C41.9497 11.424 42.0377 11.44 42.1337 11.472C42.1337 11.728 42.0537 12.208 41.8937 12.912C41.7497 13.6 41.5337 14.408 41.2457 15.336C40.9737 16.264 40.6457 17.216 40.2617 18.192C41.0137 17.904 41.7497 17.432 42.4697 16.776C43.1897 16.104 43.7737 15.216 44.2217 14.112L44.5337 14.352C44.2937 15.12 43.9257 15.792 43.4297 16.368C42.9497 16.928 42.4057 17.416 41.7977 17.832C41.1897 18.232 40.5897 18.568 39.9977 18.84C39.5817 19.864 39.1257 20.824 38.6297 21.72C38.1497 22.616 37.6377 23.336 37.0937 23.88C36.5657 24.44 36.0217 24.72 35.4617 24.72ZM35.3417 23.952C35.5817 23.952 35.9817 23.632 36.5417 22.992C37.1177 22.368 37.7257 21.264 38.3657 19.68C37.7097 20.032 37.1017 20.376 36.5417 20.712C35.9817 21.064 35.5337 21.44 35.1977 21.84C34.8617 22.24 34.6937 22.704 34.6937 23.232C34.6937 23.36 34.7417 23.512 34.8377 23.688C34.9337 23.864 35.1017 23.952 35.3417 23.952ZM46.3498 19.056C45.3738 19.056 44.6378 18.784 44.1418 18.24C43.6618 17.712 43.4218 17.056 43.4218 16.272C43.4218 15.552 43.5978 14.792 43.9498 13.992C44.3178 13.192 44.7978 12.44 45.3898 11.736C45.9978 11.032 46.6618 10.464 47.3818 10.032C48.1018 9.584 48.8138 9.36 49.5178 9.36C49.8858 9.36 50.2218 9.456 50.5258 9.648C50.8458 9.84 51.0058 10.232 51.0058 10.824C51.0058 11.432 50.8218 12.008 50.4538 12.552C50.1018 13.08 49.6298 13.552 49.0378 13.968C48.4618 14.384 47.8218 14.728 47.1178 15C46.4298 15.256 45.7418 15.416 45.0538 15.48C45.0218 15.64 44.9978 15.792 44.9818 15.936C44.9658 16.08 44.9578 16.216 44.9578 16.344C44.9578 16.584 44.9818 16.824 45.0298 17.064C45.0938 17.304 45.1978 17.528 45.3418 17.736C45.4858 17.928 45.6778 18.08 45.9178 18.192C46.1738 18.304 46.4858 18.36 46.8538 18.36C47.5418 18.36 48.2218 18.168 48.8938 17.784C49.5658 17.384 50.1898 16.864 50.7658 16.224C51.3418 15.584 51.8298 14.88 52.2298 14.112L52.5178 14.328C52.0858 15.288 51.5338 16.12 50.8618 16.824C50.2058 17.528 49.4858 18.072 48.7018 18.456C47.9338 18.856 47.1498 19.056 46.3498 19.056ZM45.1738 15.024C45.6058 14.88 46.0938 14.672 46.6378 14.4C47.1818 14.112 47.7018 13.776 48.1978 13.392C48.7098 13.008 49.1258 12.584 49.4458 12.12C49.7818 11.656 49.9498 11.168 49.9498 10.656C49.9498 10.48 49.9178 10.344 49.8538 10.248C49.7898 10.152 49.6538 10.104 49.4458 10.104C49.0618 10.104 48.6538 10.256 48.2218 10.56C47.7898 10.848 47.3738 11.232 46.9738 11.712C46.5738 12.192 46.2138 12.72 45.8938 13.296C45.5738 13.872 45.3338 14.448 45.1738 15.024ZM62.8564 20.088C61.9924 20.088 61.1764 19.928 60.4084 19.608C59.6404 19.304 59.0164 18.832 58.5364 18.192C58.0724 17.552 57.8404 16.752 57.8404 15.792C57.8404 14.96 58.0004 14.312 58.3204 13.848C58.6564 13.384 59.0644 13.056 59.5444 12.864C60.0244 12.672 60.4804 12.576 60.9124 12.576C60.4804 13.04 60.1524 13.552 59.9284 14.112C59.7044 14.672 59.5924 15.232 59.5924 15.792C59.5924 16.384 59.7204 16.936 59.9764 17.448C60.2484 17.96 60.6564 18.368 61.2004 18.672C61.7444 18.992 62.4324 19.152 63.2644 19.152C63.9844 19.152 64.6884 19.016 65.3764 18.744C66.0644 18.488 66.6244 18.104 67.0564 17.592C67.5044 17.064 67.7284 16.416 67.7284 15.648C67.7284 14.96 67.5524 14.368 67.2004 13.872C66.8484 13.376 66.3924 12.936 65.8324 12.552C65.2884 12.168 64.7044 11.8 64.0804 11.448C63.4564 11.096 62.8644 10.728 62.3044 10.344C61.7604 9.944 61.3124 9.488 60.9604 8.976C60.6084 8.464 60.4324 7.848 60.4324 7.128C60.4324 6.456 60.5924 5.752 60.9124 5.016C61.2324 4.28 61.6884 3.584 62.2804 2.928C62.8884 2.272 63.6084 1.744 64.4404 1.344C65.2884 0.927999 66.2324 0.719999 67.2724 0.719999C68.2164 0.719999 68.8724 0.951999 69.2404 1.416C69.6084 1.864 69.7924 2.432 69.7924 3.12C69.7924 3.696 69.6884 4.32 69.4804 4.992C69.2884 5.648 69.0484 6.28 68.7604 6.888C68.4724 7.48 68.2004 7.984 67.9444 8.4C67.6564 8.336 67.4484 8.216 67.3204 8.04C67.2084 7.848 67.1524 7.624 67.1524 7.368C67.1524 7.032 67.2244 6.648 67.3684 6.216C67.5124 5.784 67.6724 5.336 67.8484 4.872C68.0404 4.408 68.2084 3.96 68.3524 3.528C68.4964 3.08 68.5684 2.68 68.5684 2.328C68.5684 2.008 68.4724 1.76 68.2804 1.584C68.0884 1.392 67.7364 1.296 67.2244 1.296C66.4724 1.296 65.7764 1.472 65.1364 1.824C64.4964 2.176 63.9364 2.632 63.4564 3.192C62.9764 3.736 62.6004 4.312 62.3284 4.92C62.0724 5.528 61.9444 6.08 61.9444 6.576C61.9444 7.168 62.1124 7.68 62.4484 8.112C62.8004 8.528 63.2484 8.912 63.7924 9.264C64.3364 9.6 64.9124 9.944 65.5204 10.296C66.1444 10.632 66.7284 11.008 67.2724 11.424C67.8164 11.84 68.2564 12.336 68.5924 12.912C68.9444 13.472 69.1204 14.16 69.1204 14.976C69.1204 15.808 68.9364 16.544 68.5684 17.184C68.2004 17.808 67.7044 18.336 67.0804 18.768C66.4724 19.2 65.8004 19.528 65.0644 19.752C64.3284 19.976 63.5924 20.088 62.8564 20.088ZM72.0036 19.128C71.5076 19.128 71.0916 18.96 70.7556 18.624C70.4036 18.304 70.2276 17.808 70.2276 17.136C70.2276 16.56 70.3556 15.944 70.6116 15.288C70.8676 14.616 71.2196 13.96 71.6676 13.32C72.1156 12.664 72.6196 12.072 73.1796 11.544C73.7556 11 74.3556 10.568 74.9796 10.248C75.6196 9.928 76.2516 9.768 76.8756 9.768C77.4996 9.768 78.0196 9.936 78.4356 10.272C78.8516 10.592 79.0596 11.024 79.0596 11.568C79.0596 11.968 78.9476 12.24 78.7236 12.384C78.5156 12.528 78.2356 12.6 77.8836 12.6C77.9156 12.472 77.9396 12.336 77.9556 12.192C77.9876 12.032 78.0036 11.888 78.0036 11.76C78.0036 11.392 77.9156 11.08 77.7396 10.824C77.5636 10.552 77.2596 10.416 76.8276 10.416C76.3796 10.416 75.9236 10.576 75.4596 10.896C74.9956 11.2 74.5476 11.616 74.1156 12.144C73.6836 12.656 73.2996 13.216 72.9636 13.824C72.6276 14.432 72.3636 15.032 72.1716 15.624C71.9796 16.216 71.8836 16.744 71.8836 17.208C71.8836 17.832 72.0996 18.144 72.5316 18.144C72.8996 18.144 73.2996 17.976 73.7316 17.64C74.1636 17.288 74.6036 16.848 75.0516 16.32C75.5156 15.776 75.9556 15.216 76.3716 14.64C76.7876 14.064 77.1556 13.536 77.4756 13.056C77.5396 12.96 77.5796 12.912 77.5956 12.912C77.6916 12.928 77.8116 12.96 77.9556 13.008C78.1156 13.056 78.2516 13.12 78.3636 13.2C78.4756 13.28 78.5316 13.384 78.5316 13.512C78.5316 13.656 78.4596 13.856 78.3156 14.112C78.1716 14.352 78.0116 14.632 77.8356 14.952C77.6596 15.272 77.4996 15.6 77.3556 15.936C77.2116 16.256 77.1396 16.56 77.1396 16.848C77.1396 17.088 77.2036 17.328 77.3316 17.568C77.4596 17.792 77.6676 17.904 77.9556 17.904C78.3876 17.904 78.9556 17.592 79.6596 16.968C80.3636 16.328 81.0756 15.376 81.7956 14.112L82.0356 14.352C81.6996 15.216 81.2676 15.976 80.7396 16.632C80.2116 17.288 79.6436 17.8 79.0356 18.168C78.4436 18.536 77.8596 18.72 77.2836 18.72C76.6916 18.72 76.2516 18.544 75.9636 18.192C75.6916 17.84 75.5556 17.456 75.5556 17.04C75.5556 16.944 75.5636 16.84 75.5796 16.728C75.5956 16.6 75.6116 16.472 75.6276 16.344C74.9396 17.272 74.3076 17.968 73.7316 18.432C73.1716 18.896 72.5956 19.128 72.0036 19.128ZM93.4007 18.744C92.8407 18.744 92.4327 18.568 92.1767 18.216C91.9207 17.88 91.7927 17.472 91.7927 16.992C91.7927 16.592 91.8487 16.192 91.9607 15.792C92.0887 15.392 92.2087 15 92.3207 14.616C92.4487 14.232 92.5127 13.888 92.5127 13.584C92.5127 13.264 92.4407 13.04 92.2967 12.912C92.1527 12.784 91.9927 12.72 91.8167 12.72C91.4167 12.72 90.9767 13.032 90.4967 13.656C90.0327 14.28 89.4247 15.16 88.6727 16.296C88.4167 16.68 88.2007 17.072 88.0247 17.472C87.8487 17.856 87.6807 18.208 87.5207 18.528C87.3927 18.528 87.2327 18.512 87.0407 18.48C86.8487 18.448 86.6727 18.392 86.5127 18.312C86.3687 18.248 86.2967 18.16 86.2967 18.048C86.2967 17.936 86.3687 17.672 86.5127 17.256C86.6727 16.824 86.8487 16.328 87.0407 15.768C87.2487 15.192 87.4247 14.616 87.5687 14.04C87.7287 13.448 87.8087 12.944 87.8087 12.528C87.8087 12.256 87.7607 12.04 87.6647 11.88C87.5847 11.704 87.4327 11.616 87.2087 11.616C86.8567 11.616 86.4327 11.832 85.9367 12.264C85.4407 12.68 84.9287 13.232 84.4007 13.92C83.8727 14.608 83.3687 15.368 82.8887 16.2C82.4247 17.016 82.0487 17.832 81.7607 18.648C81.6167 18.648 81.4407 18.624 81.2327 18.576C81.0247 18.528 80.8487 18.464 80.7047 18.384C80.5447 18.304 80.4647 18.224 80.4647 18.144C80.4647 18.048 80.5527 17.768 80.7287 17.304C80.8887 16.824 81.0807 16.256 81.3047 15.6C81.5127 14.928 81.6967 14.248 81.8567 13.56C82.0327 12.872 82.1207 12.264 82.1207 11.736C82.2167 11.624 82.3687 11.512 82.5767 11.4C82.7847 11.288 83.0007 11.232 83.2247 11.232C83.4487 11.232 83.6087 11.288 83.7047 11.4C83.8167 11.512 83.8727 11.664 83.8727 11.856C83.8727 12.064 83.8087 12.424 83.6807 12.936C83.5687 13.432 83.4247 13.984 83.2487 14.592C83.5687 14.08 83.9287 13.56 84.3287 13.032C84.7447 12.488 85.1767 11.992 85.6247 11.544C86.0727 11.096 86.5207 10.736 86.9687 10.464C87.4327 10.176 87.8807 10.032 88.3127 10.032C88.8087 10.032 89.1447 10.216 89.3207 10.584C89.5127 10.936 89.6087 11.36 89.6087 11.856C89.6087 12.256 89.5607 12.68 89.4647 13.128C89.3847 13.56 89.2887 13.968 89.1767 14.352C89.0647 14.72 88.9607 15.016 88.8647 15.24C89.2007 14.632 89.5687 14.048 89.9687 13.488C90.3847 12.912 90.8327 12.448 91.3127 12.096C91.7927 11.728 92.3047 11.544 92.8487 11.544C93.3607 11.544 93.7127 11.696 93.9047 12C94.1127 12.304 94.2167 12.664 94.2167 13.08C94.2167 13.496 94.1447 13.952 94.0007 14.448C93.8567 14.944 93.7047 15.424 93.5447 15.888C93.4007 16.352 93.3287 16.752 93.3287 17.088C93.3287 17.296 93.3767 17.488 93.4727 17.664C93.5847 17.824 93.7767 17.904 94.0487 17.904C94.4967 17.904 94.9127 17.704 95.2967 17.304C95.6967 16.888 96.0647 16.392 96.4007 15.816C96.7367 15.224 97.0247 14.656 97.2647 14.112L97.5527 14.448C97.2967 15.12 96.9687 15.792 96.5687 16.464C96.1687 17.12 95.6967 17.664 95.1527 18.096C94.6247 18.528 94.0407 18.744 93.4007 18.744ZM98.6203 18.72C98.0763 18.72 97.6363 18.48 97.3003 18C96.9803 17.504 96.8203 16.936 96.8203 16.296C96.8203 15.832 96.8923 15.296 97.0363 14.688C97.1963 14.08 97.3883 13.48 97.6123 12.888C97.8363 12.296 98.0683 11.808 98.3083 11.424C98.5483 11.04 98.7563 10.848 98.9323 10.848C99.0123 10.848 99.1483 10.896 99.3403 10.992C99.5323 11.072 99.6923 11.184 99.8203 11.328C99.6443 11.6 99.4283 12.016 99.1723 12.576C98.9163 13.136 98.6923 13.736 98.5003 14.376C98.3083 15.016 98.2123 15.608 98.2123 16.152C98.2123 16.28 98.2283 16.48 98.2603 16.752C98.2923 17.008 98.3723 17.24 98.5003 17.448C98.6283 17.656 98.8203 17.76 99.0763 17.76C99.3803 17.76 99.6923 17.608 100.012 17.304C100.332 16.984 100.652 16.576 100.972 16.08C101.308 15.584 101.628 15.048 101.932 14.472C102.236 13.896 102.516 13.344 102.772 12.816C103.044 12.288 103.268 11.848 103.444 11.496C103.54 11.512 103.676 11.544 103.852 11.592C104.044 11.64 104.212 11.704 104.356 11.784C104.516 11.864 104.596 11.976 104.596 12.12C104.596 12.184 104.516 12.4 104.356 12.768C104.196 13.12 104.004 13.56 103.78 14.088C103.572 14.6 103.388 15.12 103.228 15.648C103.068 16.176 102.988 16.64 102.988 17.04C102.988 17.328 103.044 17.56 103.156 17.736C103.284 17.912 103.492 18 103.78 18C104.116 18 104.524 17.848 105.004 17.544C105.484 17.24 105.972 16.8 106.468 16.224C106.964 15.632 107.404 14.928 107.788 14.112L108.1 14.328C107.764 15.192 107.324 15.96 106.78 16.632C106.236 17.288 105.66 17.8 105.052 18.168C104.444 18.536 103.852 18.72 103.276 18.72C102.86 18.72 102.524 18.64 102.268 18.48C102.028 18.32 101.852 18.104 101.74 17.832C101.644 17.56 101.596 17.264 101.596 16.944C101.596 16.752 101.612 16.56 101.644 16.368C101.676 16.16 101.716 15.952 101.764 15.744C101.476 16.272 101.164 16.768 100.828 17.232C100.492 17.68 100.14 18.04 99.7723 18.312C99.4043 18.584 99.0203 18.72 98.6203 18.72ZM109.936 19.056C108.96 19.056 108.224 18.784 107.728 18.24C107.248 17.712 107.008 17.056 107.008 16.272C107.008 15.552 107.184 14.792 107.536 13.992C107.904 13.192 108.384 12.44 108.976 11.736C109.584 11.032 110.248 10.464 110.968 10.032C111.688 9.584 112.4 9.36 113.104 9.36C113.472 9.36 113.808 9.456 114.112 9.648C114.432 9.84 114.592 10.232 114.592 10.824C114.592 11.432 114.408 12.008 114.04 12.552C113.688 13.08 113.216 13.552 112.624 13.968C112.048 14.384 111.408 14.728 110.704 15C110.016 15.256 109.328 15.416 108.64 15.48C108.608 15.64 108.584 15.792 108.568 15.936C108.552 16.08 108.544 16.216 108.544 16.344C108.544 16.584 108.568 16.824 108.616 17.064C108.68 17.304 108.784 17.528 108.928 17.736C109.072 17.928 109.264 18.08 109.504 18.192C109.76 18.304 110.072 18.36 110.44 18.36C111.128 18.36 111.808 18.168 112.48 17.784C113.152 17.384 113.776 16.864 114.352 16.224C114.928 15.584 115.416 14.88 115.816 14.112L116.104 14.328C115.672 15.288 115.12 16.12 114.448 16.824C113.792 17.528 113.072 18.072 112.288 18.456C111.52 18.856 110.736 19.056 109.936 19.056ZM108.76 15.024C109.192 14.88 109.68 14.672 110.224 14.4C110.768 14.112 111.288 13.776 111.784 13.392C112.296 13.008 112.712 12.584 113.032 12.12C113.368 11.656 113.536 11.168 113.536 10.656C113.536 10.48 113.504 10.344 113.44 10.248C113.376 10.152 113.24 10.104 113.032 10.104C112.648 10.104 112.24 10.256 111.808 10.56C111.376 10.848 110.96 11.232 110.56 11.712C110.16 12.192 109.8 12.72 109.48 13.296C109.16 13.872 108.92 14.448 108.76 15.024ZM117.328 18.72C116.64 18.72 116.144 18.48 115.84 18C115.552 17.536 115.408 16.952 115.408 16.248C115.408 15.48 115.552 14.568 115.84 13.512C116.128 12.456 116.504 11.344 116.968 10.176C117.448 9.008 117.968 7.872 118.528 6.768C119.088 5.648 119.648 4.632 120.208 3.72C120.768 2.808 121.28 2.08 121.744 1.536C122.224 0.991999 122.6 0.719999 122.872 0.719999C123.048 0.719999 123.192 0.823999 123.304 1.032C123.416 1.224 123.504 1.464 123.568 1.752C123.632 2.024 123.664 2.272 123.664 2.496C123.664 2.928 123.552 3.496 123.328 4.2C123.12 4.888 122.816 5.664 122.416 6.528C122.032 7.376 121.568 8.24 121.024 9.12C120.496 9.984 119.912 10.816 119.272 11.616C118.648 12.416 117.984 13.104 117.28 13.68C117.184 14.112 117.104 14.536 117.04 14.952C116.992 15.352 116.968 15.736 116.968 16.104C116.968 16.728 117.056 17.192 117.232 17.496C117.408 17.8 117.672 17.952 118.024 17.952C118.456 17.952 118.88 17.76 119.296 17.376C119.728 16.992 120.128 16.512 120.496 15.936C120.88 15.344 121.208 14.736 121.48 14.112L121.84 14.304C121.2 15.664 120.504 16.744 119.752 17.544C119 18.328 118.192 18.72 117.328 18.72ZM117.496 12.864C118.056 12.304 118.6 11.664 119.128 10.944C119.656 10.208 120.144 9.448 120.592 8.664C121.056 7.88 121.464 7.12 121.816 6.384C122.168 5.648 122.44 4.992 122.632 4.416C122.824 3.824 122.92 3.368 122.92 3.048C122.92 2.888 122.896 2.784 122.848 2.736C122.816 2.688 122.784 2.664 122.752 2.664C122.624 2.664 122.4 2.872 122.08 3.288C121.776 3.688 121.416 4.232 121 4.92C120.584 5.608 120.16 6.392 119.728 7.272C119.296 8.152 118.88 9.072 118.48 10.032C118.096 10.992 117.768 11.936 117.496 12.864Z" fill="#F1F1F1"/>
</svg>
