<svg width="1366" height="1509" viewBox="0 0 1366 1509" fill="none" xmlns="http://www.w3.org/2000/svg">
<path d="M31.6123 97.56C-3.97647 136.856 -4.98052 149.618 15.3225 213.488C33.5839 270.936 54.8312 327.789 82.1102 381.543C116.483 449.277 151.524 517.997 199.667 576.748C227.649 610.895 265.548 672.031 306.365 655.21C349.369 637.487 339.328 565.971 338.673 519.463C336.881 392.254 291.062 185.31 226.002 69.5961C113.541 -130.424 40.2834 170.884 30.5261 235.479C-8.6782 495.021 18.1649 775.165 82.11 1028.24C117.612 1168.75 183.946 1380.85 303.107 1481.1C429.366 1587.31 492.1 1333.56 504.556 1277.48C560.97 1023.44 535.79 764.609 490.981 511.318C479.869 448.509 464.094 386.608 449.442 324.529C448.754 321.612 416.497 179.454 398.401 147.787C360.918 82.1915 402.103 299.232 413.334 373.941C445.709 589.324 488.476 803.004 530.891 1016.57C542.307 1074.05 553.466 1131.59 565.37 1188.97C572.11 1221.45 578.261 1254.11 586.818 1286.16C589.697 1296.94 589.328 1321.52 599.579 1317.11C626.144 1305.68 623.875 1055.02 624.013 1051.59C629.189 923.667 630.447 795.695 627.814 667.699C627.099 632.912 624.76 528.714 622.656 563.445C616.829 659.575 615.955 756.123 610.981 852.315C605.735 953.788 595.305 1055.16 591.162 1156.66C589.574 1195.57 592.064 1211.2 614.782 1173.22C628.264 1150.68 674.287 1017.21 711.977 1067.34C738.522 1102.64 762.486 1173.41 814.602 1123.81C834.161 1105.19 849.953 1079.5 859.399 1054.31C863.847 1042.45 861.767 1030.87 857.498 1047.79C851.871 1070.09 850.707 1095.25 856.955 1117.56C859.386 1126.25 879.769 1150.3 871.616 1123.27C866.159 1105.17 848.076 1076.3 824.376 1083.63C805.042 1089.6 810.749 1114.4 829.263 1115.66C860.697 1117.8 891.34 1092.01 912.883 1073.04C926.572 1060.99 937.471 1023.71 951.979 1034.76C955.123 1037.15 954.425 1076.71 955.508 1080.37C967.823 1122.01 1002.85 1092.62 1020.4 1072.5C1021.34 1071.42 1062.99 1013.06 1064.92 1014.67C1069.88 1018.78 1066.7 1027.52 1066.28 1033.94C1064.03 1067.9 1050.47 1153.86 1046.73 1178.11C1035.67 1249.83 1032.35 1348.12 997.047 1414.31C978.888 1448.36 979.271 1337.38 984.829 1299.19C995.844 1223.53 1014.23 1146.45 1048.63 1077.66C1057.26 1060.4 1080.41 1016.42 1087.18 1034.49C1105.81 1084.16 1074.59 1238.78 1159.13 1249.24C1252.77 1260.82 1232.19 1077.95 1283.74 1045.89C1310.72 1029.12 1373.02 1042.01 1363.02 983.175C1339.95 847.394 1133.6 839.303 1038.59 851.5C903.451 868.847 713.2 950.812 820.575 1120.55C851.159 1168.9 898.595 1204.56 941.933 1241.91C983.905 1278.08 1031.27 1307.47 1075.78 1340.46C1099.41 1357.97 1129.49 1369.32 1146.37 1393.4C1151.75 1401.08 1129.57 1405.41 1120.31 1403.99C1058.94 1394.61 879.77 1332.61 837.951 1308.97C654.601 1205.34 621.052 1067 707.362 878.107C773.978 732.314 883.233 628.868 994.875 520.005C1052.65 463.665 860.268 609.689 798.584 661.726C720.326 727.745 550.375 852.324 621.841 982.632C639.973 1015.69 674.374 1037.09 704.104 1060.28C745.078 1092.24 854.647 1180.09 843.924 1129.24C836.776 1095.34 807.509 1070.01 785.281 1043.45C689.945 929.497 555.215 792.445 442.655 697.02C399.12 660.112 351.141 628.75 304.193 596.295C262.185 567.256 216.164 570.624 238.491 512.947C272.891 424.08 374.682 314.765 469.804 291.95C639.917 251.15 685.417 460.586 703.29 574.847C736.384 786.428 719.457 1007.22 702.204 1219.38C699.12 1257.3 694.464 1295.08 689.986 1332.86C679.474 1421.56 687.934 1309.42 688.629 1296.75C699.715 1094.68 704.239 893.469 703.289 691.047C702.556 534.699 672.819 338.287 719.308 184.167C750.966 79.2131 838.271 133.24 893.879 187.696C1015.7 306.998 1105.4 469.286 1161.03 628.875C1206.37 758.947 1229.44 903.839 1218.59 1041.82C1216.34 1070.34 1206.98 1128.31 1182.21 1153.67C1156.79 1179.7 1161.85 1149.12 1136.05 1158.02" stroke="white" stroke-width="3" stroke-linecap="round"/>
</svg>
